<?xml version="1.0" encoding="utf-8"?>
<!-- Generator: Adobe Illustrator 26.3.1, SVG Export Plug-In . SVG Version: 6.00 Build 0)  -->
<svg version="1.1" id="Layer_1" xmlns="http://www.w3.org/2000/svg" xmlns:xlink="http://www.w3.org/1999/xlink" x="0px" y="0px"
	 viewBox="0 0 452 78" style="enable-background:new 0 0 452 78;" xml:space="preserve">
<style type="text/css">
	.st0{fill:#FFFFFF;}
	.st1{fill:none;stroke:#FFBB00;stroke-width:3;stroke-miterlimit:10;}
	.st2{clip-path:url(#SVGID_00000057131199632601818580000007455941340874880161_);fill:#FFBB00;}
	.st3{clip-path:url(#SVGID_00000152983152598215936930000017927275361538504351_);fill:#FFBB00;}
	.st4{fill:#BFBFBF;}
	.st5{fill:#404040;}
</style>
<polygon class="st0" points="276,73.8 177,9.8 40.5,9.8 43.5,6.8 177.9,6.8 178.3,7 276.9,70.7 412.4,70.8 409.5,73.8 "/>
<polygon class="st1" points="177.5,17.3 249.5,62.3 9.5,62.5 9.5,27.5 19.5,17.5 "/>
<polygon class="st1" points="204.5,17.3 276.5,62.3 433.5,62.5 443.5,52.2 443.5,17.5 "/>
<g>
	<defs>
		<polygon id="SVGID_1_" points="177.5,17.3 249.5,62.3 9.5,62.5 9.5,27.5 19.5,17.5 		"/>
	</defs>
	<clipPath id="SVGID_00000076572931307246797700000006602603173130969987_">
		<use xlink:href="#SVGID_1_"  style="overflow:visible;"/>
	</clipPath>
	<polygon style="clip-path:url(#SVGID_00000076572931307246797700000006602603173130969987_);fill:#FFBB00;" points="232,-12 
		409.1,105.7 136,102 -36,-9 	"/>
</g>
<g>
	<defs>
		<polygon id="SVGID_00000018920100121809759050000000224415307062364090_" points="204.5,17.3 276.5,62.3 433.5,62.5 443.5,52.2 
			443.5,17.5 		"/>
	</defs>
	<clipPath id="SVGID_00000023961306902157239400000001488064258746259873_">
		<use xlink:href="#SVGID_00000018920100121809759050000000224415307062364090_"  style="overflow:visible;"/>
	</clipPath>
	<polygon style="clip-path:url(#SVGID_00000023961306902157239400000001488064258746259873_);fill:#FFBB00;" points="232,-12 
		409.1,105.7 136,102 -36,-9 	"/>
</g>
<g>
	<path class="st4" d="M303.4,50v-2.8h11.1c0.7,0,1.1-0.4,1.1-1.1v-2.6c0-0.7-0.3-1.1-0.9-1.2l-7-1.4c-2.9-0.6-4.3-2.5-4.3-5.7v-2
		c0-4,2-6,6-6h8.2l2.4,1.9v2.8h-10.3c-0.7,0-1.1,0.4-1.1,1.1v2.3c0,0.7,0.3,1.1,0.9,1.2l7,1.4c2.9,0.6,4.3,2.5,4.3,5.7v2.3
		c0,4-2,6-6,6h-8.9L303.4,50z"/>
	<path class="st4" d="M325.1,51.9V25.5h4.9v14.7l6.5-7.1h4.8l0.4,0.8l-6.5,7l7,10.2l-0.4,0.8H337l-5.1-7.5l-2,2.2v5.3H325.1z"/>
	<path class="st4" d="M345.6,29.9v-4.8h5.1v4.8H345.6z M345.7,51.9V33h4.9v18.8H345.7z"/>
	<path class="st4" d="M355.7,45V25.5h4.9v20c0,1.5,0.8,2.3,2.3,2.4v4.3C358.1,52.2,355.7,49.8,355.7,45z"/>
	<path class="st4" d="M366.7,45V25.5h4.9v20c0,1.5,0.8,2.3,2.3,2.4v4.3C369.1,52.2,366.7,49.8,366.7,45z"/>
	<path class="st4" d="M377.3,50.3v-2.7h8.2c0.8,0,1.2-0.5,1.2-1.4c0-0.9-0.3-1.4-1-1.6l-3.9-0.6c-3-0.5-4.6-2.3-4.6-5.3
		c0-3.8,1.9-5.7,5.8-5.7h5.5l2.1,1.6v2.7h-7.4c-0.8,0-1.2,0.5-1.2,1.4c0,1,0.4,1.5,1.1,1.6l3.8,0.6c3,0.5,4.5,2.2,4.5,5.2
		c0,3.8-1.9,5.7-5.8,5.7h-6.3L377.3,50.3z"/>
</g>
<g>
	<path class="st5" d="M44.4,51.9V27.3h5.1v20h10.6v4.6H44.4z"/>
	<path class="st5" d="M63.5,29.9v-4.8h5.1v4.8H63.5z M63.6,51.9V33h4.9v18.8H63.6z"/>
	<path class="st5" d="M73.7,51.9V25.5h4.9V33h5.5c3.9,0,5.8,1.9,5.8,5.8v7.3c0,3.9-1.9,5.8-5.8,5.8H73.7z M78.6,47.6h5.2
		c0.8,0,1.1-0.4,1.1-1.1v-8c0-0.8-0.4-1.1-1.1-1.1h-5.2V47.6z"/>
	<path class="st5" d="M94.6,51.9V35.5c0.9-1.6,2.6-2.4,5.1-2.4h3.9l2.1,1.6v2.7H101c-0.7,0-1.2,0.2-1.5,0.5v14H94.6z"/>
	<path class="st5" d="M113.6,51.9c-3.9,0-5.8-1.9-5.8-5.7s1.9-5.7,5.8-5.7h4.9v-2.1c0-0.8-0.4-1.1-1.1-1.1h-7.6v-2.7l2.1-1.6h5.7
		c3.9,0,5.8,1.9,5.8,5.8v13.1H113.6z M112.7,46.4c0,0.8,0.4,1.1,1.1,1.1h4.6v-3.3h-4.6c-0.8,0-1.1,0.4-1.1,1.1V46.4z"/>
	<path class="st5" d="M128.2,51.9V35.5c0.9-1.6,2.6-2.4,5.1-2.4h3.9l2.1,1.6v2.7h-4.7c-0.7,0-1.2,0.2-1.5,0.5v14H128.2z"/>
	<path class="st5" d="M140.9,33.8l0.5-0.7h4.2l4.4,14.5h0.4l4.4-14.5h4.2l0.5,0.7L151.5,59h-4.2l-0.5-0.7l2.1-6.4h-2.4L140.9,33.8z"
		/>
</g>
</svg>
