<?xml version="1.0" encoding="utf-8"?>
<!-- Generator: Adobe Illustrator 23.1.0, SVG Export Plug-In . SVG Version: 6.00 Build 0)  -->
<svg version="1.1" id="Layer_1" xmlns="http://www.w3.org/2000/svg" xmlns:xlink="http://www.w3.org/1999/xlink" x="0px" y="0px"
	 viewBox="0 0 512 512" style="enable-background:new 0 0 512 512;" xml:space="preserve">
<g>
	<path d="M67.4,232.9V93.3h18.8l73.5,113.4V93.3h17v139.7h-18.8L84.4,119.6v113.4H67.4z"/>
	<path d="M213.1,232.9V93.3h66.2c20.6,0,31,10.3,31,31v22.3c0,17.5-7.5,27.5-22.5,30l26.5,52.4l-2.2,4h-14.4l-28.1-55.5h-39.5v55.5
		H213.1z M230.1,162.1h49.4c9.2,0,13.8-4.6,13.8-13.8v-25.9c0-9.2-4.6-13.8-13.8-13.8h-49.4V162.1z"/>
	<path d="M340.6,202v-77.7c0-20.6,10.3-31,31-31h61.1l9.1,7.1v8.3h-70.4c-9.2,0-13.8,4.6-13.8,13.8v81.4c0,9.2,4.6,13.8,13.8,13.8
		h57.5v-50.2h-34.4V152h51.4v81h-74.3C351,232.9,340.6,222.6,340.6,202z"/>
</g>
<g>
	<path d="M67.4,429V289.3h17V348h75.7v-58.7h17V429h-17v-65.6H84.4V429H67.4z"/>
	<path d="M203,425.4l45.8-136h27.9l45.7,136L320,429h-14l-11.5-35.2h-63.6L219.4,429h-14L203,425.4z M236,378.4h53.4l-24.3-73.7
		h-4.9L236,378.4z"/>
	<path d="M337.6,425.1l46.2-68l-43.5-64l1.8-3.8h14.8l36.4,54.7l36.4-54.7h14.8l1.8,3.8l-43.5,64l46.2,68l-1.8,3.8h-14.8l-39.1-58.7
		L354.2,429h-14.8L337.6,425.1z"/>
</g>
</svg>
